<?xml version="1.0" encoding="UTF-8"?>
<svg xmlns="http://www.w3.org/2000/svg" xmlns:xlink="http://www.w3.org/1999/xlink" width="75pt" height="75pt" viewBox="0 0 75 75" version="1.1">
<g id="surface1">
<path style=" stroke:none;fill-rule:nonzero;fill:rgb(100%,100%,100%);fill-opacity:1;" d="M 48.511719 40.210938 C 48.5 41.339844 47.972656 42.460938 47.972656 42.460938 C 46.085938 46.339844 42.105469 48.851562 37.5 48.851562 C 32.894531 48.851562 28.914062 46.339844 27.027344 42.460938 C 27.027344 42.460938 26.503906 41.339844 26.492188 40.210938 C 25.863281 40.199219 25.21875 40.183594 24.570312 40.167969 C 24.347656 40.855469 24.316406 41.566406 24.402344 42.253906 C 24.402344 42.253906 25.652344 52.671875 37.5 52.671875 C 49.347656 52.671875 50.601562 42.253906 50.601562 42.253906 C 50.6875 41.566406 50.65625 40.851562 50.433594 40.167969 C 49.78125 40.183594 49.140625 40.199219 48.511719 40.210938 Z M 44.90625 40.265625 C 42.542969 40.292969 40.574219 40.296875 39.324219 40.296875 C 38.175781 40.296875 37.503906 40.292969 37.496094 40.292969 C 37.492188 40.292969 36.824219 40.296875 35.675781 40.296875 C 34.429688 40.296875 32.457031 40.292969 30.097656 40.265625 C 31.253906 43.226562 34.132812 45.324219 37.5 45.324219 C 40.871094 45.324219 43.75 43.226562 44.90625 40.265625 Z M 37.5 29.429688 C 33.109375 29.429688 29.550781 32.988281 29.550781 37.378906 C 29.550781 37.449219 29.554688 37.523438 29.558594 37.59375 C 31.742188 37.648438 34.367188 37.683594 37.5 37.683594 C 40.632812 37.683594 43.257812 37.648438 45.441406 37.59375 C 45.445312 37.523438 45.449219 37.453125 45.449219 37.378906 C 45.449219 32.988281 41.890625 29.429688 37.5 29.429688 Z M 46.015625 36.707031 L 46.015625 36.691406 C 45.84375 34.558594 44.882812 32.578125 43.308594 31.117188 C 41.726562 29.648438 39.664062 28.835938 37.5 28.835938 C 35.339844 28.835938 33.277344 29.644531 31.695312 31.117188 C 30.117188 32.578125 29.15625 34.558594 28.988281 36.691406 L 28.988281 36.707031 C 28.988281 36.726562 28.898438 37.316406 28.402344 37.433594 L 27.972656 37.550781 C 28.195312 37.558594 28.429688 37.566406 28.667969 37.570312 C 29.203125 37.242188 29.195312 36.707031 29.195312 36.707031 C 29.539062 32.421875 33.125 29.046875 37.5 29.046875 C 41.878906 29.046875 45.464844 32.421875 45.804688 36.707031 C 45.804688 36.707031 45.800781 37.242188 46.335938 37.570312 C 46.574219 37.566406 46.804688 37.558594 47.03125 37.550781 L 46.601562 37.433594 C 46.101562 37.316406 46.015625 36.726562 46.015625 36.707031 Z M 64.617188 36.21875 C 64.617188 36.21875 56.355469 36.261719 53.925781 32.40625 C 48.511719 23.824219 42.679688 22.328125 37.5 22.328125 C 32.320312 22.328125 26.488281 23.824219 21.078125 32.40625 C 18.644531 36.261719 10.382812 36.21875 10.382812 36.21875 C 10.382812 36.21875 -1.527344 36.898438 6.570312 38.414062 C 14.664062 39.929688 37.5 39.769531 37.5 39.769531 C 37.5 39.769531 60.332031 39.929688 68.429688 38.414062 C 76.527344 36.898438 64.617188 36.21875 64.617188 36.21875 Z M 54.535156 37.628906 C 52.222656 37.882812 46.945312 38.203125 37.5 38.203125 C 28.054688 38.203125 22.777344 37.882812 20.464844 37.628906 C 18.167969 37.378906 22.035156 36.429688 22.035156 36.429688 C 24.175781 36.140625 25.0625 33.820312 25.0625 33.820312 C 29.164062 24.886719 37.503906 25.511719 37.503906 25.511719 C 37.503906 25.511719 45.84375 24.886719 49.941406 33.820312 C 49.941406 33.820312 50.832031 36.140625 52.972656 36.429688 C 52.96875 36.429688 56.835938 37.378906 54.535156 37.628906 Z M 54.535156 37.628906 "/>
</g>
</svg>
